<svg xmlns="http://www.w3.org/2000/svg" viewBox="0 0 940 400" width="940" height="400">
  <defs>
    <linearGradient id="bg03" x1="0" y1="0" x2="0" y2="1"><stop offset="0" stop-color="#0F2B4A"/><stop offset="1" stop-color="#0A1E35"/></linearGradient>
    <linearGradient id="gold03" x1="0" y1="0" x2="1" y2="0"><stop offset="0" stop-color="#C9A84C"/><stop offset="1" stop-color="#E8CC6E"/></linearGradient>
  </defs>
  <rect width="940" height="400" fill="url(#bg03)"/>
  <rect x="0" y="0" width="940" height="3" fill="url(#gold03)"/>
  
  <!-- 10 dots in arc -->
  <g opacity="0.25">
    <circle cx="870" cy="40" r="5" fill="#C9A84C"/>
    <circle cx="850" cy="85" r="5" fill="#C9A84C"/>
    <circle cx="820" cy="130" r="5" fill="#C9A84C"/>
    <circle cx="780" cy="175" r="5" fill="#C9A84C"/>
    <circle cx="730" cy="215" r="5" fill="#C9A84C"/>
    <circle cx="670" cy="250" r="5" fill="#C9A84C"/>
    <circle cx="605" cy="280" r="5" fill="#C9A84C"/>
    <circle cx="540" cy="305" r="5" fill="#C9A84C"/>
    <circle cx="475" cy="325" r="5" fill="#C9A84C"/>
    <circle cx="410" cy="340" r="5" fill="#C9A84C"/>
  </g>
  
  <rect x="30" y="25" width="100" height="26" rx="13" fill="#C9A84C"/>
  <text x="80" y="42" text-anchor="middle" font-family="'PingFang SC','Microsoft YaHei',sans-serif" font-size="12" font-weight="bold" fill="#0F2B4A">深度连载</text>
  
  <rect x="50" y="258" width="48" height="3" rx="1.5" fill="#C9A84C"/>
  
  <text x="50" y="175" font-family="'PingFang SC','Microsoft YaHei',sans-serif" font-size="44" font-weight="bold" fill="#ffffff">80%的时间花在哪？</text>
  <text x="50" y="240" font-family="'PingFang SC','Microsoft YaHei',sans-serif" font-size="26" fill="#C9A84C" font-weight="bold">10个场景告诉你答案</text>
  
  <text x="910" y="370" text-anchor="end" font-family="'PingFang SC','Microsoft YaHei',sans-serif" font-size="13" fill="#C9A84C" opacity="0.7">清源智界 · 獴探</text>
</svg>
